# xmcd
#
# Track frame offsets:
#	150
#	14119
#	27503
#	41669
#	55135
#	69234
#	81595
#	92105
#	105899
#	120612
#	132830
#	146261
#	161222
#	176107
#	189986
#	203421
#	216529
#	230936
#	243277
#	255684
#
# Disc length: 3603 seconds
#
# Revision: 1
# Processed by: cddbd v1.5.1PL0 Copyright (c) Steve Scherf et al.
# Submitted via: EasyCDDAExtractor 7.0.5.4
#
DISCID=230e1114
DTITLE=The Inkspots - My Prayer
DYEAR=1998
DGENRE=Oldies
TTITLE0=If I Didn't Care
TTITLE1=Address Unknown
TTITLE2=My Prayer
TTITLE3=When the Swallows Come Back to Capistrano
TTITLE4=Maybe
TTITLE5=Whispering Grass
TTITLE6=Stop Pretending
TTITLE7=Java Jive
TTITLE8=We Three (My Echo, My Shadow and Me)
TTITLE9=Do I Worry?
TTITLE10=I Don't Want To Set the World On Fire
TTITLE11=Someone's Rocking My Dreamboat
TTITLE12=Ev'ry Night About This Time
TTITLE13=Don't Get Around Much Any More
TTITLE14=Cow Cow Boogie
TTITLE15=I'll Get By
TTITLE16=Into Each Life Some Rain Must Fall
TTITLE17=I'm Beginning To See The Light
TTITLE18=The Gypsy
TTITLE19=To Each His Own
EXTD=
EXTT0=
EXTT1=
EXTT2=
EXTT3=
EXTT4=
EXTT5=
EXTT6=
EXTT7=
EXTT8=
EXTT9=
EXTT10=
EXTT11=
EXTT12=
EXTT13=
EXTT14=
EXTT15=
EXTT16=
EXTT17=
EXTT18=
EXTT19=
PLAYORDER=
